<svg xmlns="http://www.w3.org/2000/svg"  viewBox="0 0 64 64" width="64px" height="64px" fill-rule="evenodd" clip-rule="evenodd"><polygon fill="#f283a5" fill-rule="evenodd" points="59,10 59,32.6 53,40 35,40" clip-rule="evenodd"/><path fill="#ed7899" d="M50.901,40.323c-0.553,0-1.11-0.183-1.573-0.558c-1.072-0.87-1.237-2.444-0.367-3.517l5.765-7.11 c0.87-1.072,2.443-1.237,3.517-0.367c1.072,0.87,1.237,2.444,0.367,3.517l-5.765,7.11C52.351,40.007,51.629,40.323,50.901,40.323z"/><polygon fill="#f283a5" fill-rule="evenodd" points="41,56 23,56 5,33 5,10" clip-rule="evenodd"/><path fill="#ed7899" d="M24.815,55.949c-0.743,0-1.478-0.329-1.971-0.959L5.68,33.058c-0.851-1.087-0.659-2.659,0.428-3.51 c1.089-0.852,2.659-0.659,3.51,0.428l17.164,21.932c0.851,1.087,0.659,2.659-0.428,3.51C25.896,55.775,25.354,55.949,24.815,55.949 z"/><path fill="#8d6c9f" d="M23.626,51.308c-0.297,0-0.591-0.132-0.788-0.384c-0.34-0.435-0.264-1.063,0.171-1.404l1.575-1.232 c0.433-0.339,1.064-0.263,1.404,0.171c0.34,0.435,0.264,1.063-0.171,1.404l-1.575,1.232C24.059,51.239,23.842,51.308,23.626,51.308 z"/><path fill="#8d6c9f" d="M20.278,47.031c-0.297,0-0.591-0.132-0.788-0.384c-0.34-0.435-0.264-1.063,0.171-1.404l1.575-1.232 c0.435-0.339,1.063-0.263,1.404,0.171c0.34,0.435,0.264,1.063-0.171,1.404l-1.575,1.232C20.711,46.962,20.494,47.031,20.278,47.031 z"/><path fill="#8d6c9f" d="M16.931,42.754c-0.297,0-0.591-0.132-0.788-0.384c-0.34-0.435-0.264-1.063,0.171-1.404l1.575-1.233 c0.434-0.34,1.063-0.264,1.404,0.171c0.34,0.435,0.264,1.063-0.171,1.404l-1.575,1.233C17.364,42.685,17.147,42.754,16.931,42.754z"/><path fill="#8d6c9f" d="M13.584,38.477c-0.297,0-0.591-0.132-0.788-0.384c-0.34-0.435-0.264-1.063,0.171-1.404l1.575-1.232 c0.436-0.34,1.063-0.263,1.404,0.171c0.34,0.435,0.264,1.063-0.171,1.404L14.2,38.265C14.017,38.408,13.8,38.477,13.584,38.477z"/><path fill="#8d6c9f" d="M10.237,34.2c-0.297,0-0.591-0.132-0.788-0.384c-0.34-0.435-0.264-1.063,0.171-1.404l1.575-1.232 c0.435-0.34,1.063-0.263,1.404,0.171c0.34,0.435,0.264,1.063-0.171,1.404l-1.575,1.232C10.67,34.131,10.453,34.2,10.237,34.2z"/><path fill="#8d6c9f" d="M41,57H23c-0.308,0-0.598-0.142-0.788-0.384l-18-23C4.075,33.44,4,33.224,4,33V10 c0-0.427,0.271-0.806,0.674-0.945c0.403-0.14,0.851-0.008,1.114,0.329l36,46c0.236,0.301,0.279,0.71,0.111,1.054S41.382,57,41,57z M23.487,55h15.46L6,12.9v19.755L23.487,55z"/><path fill="#8d6c9f" d="M53,41H35c-0.384,0-0.735-0.22-0.901-0.567c-0.167-0.346-0.12-0.758,0.121-1.058l24-30 c0.265-0.332,0.712-0.458,1.112-0.319C59.732,9.197,60,9.575,60,10v22.6c0,0.229-0.079,0.452-0.223,0.63l-6,7.4 C53.587,40.864,53.301,41,53,41z M37.081,39h15.443L58,32.246V12.851L37.081,39z"/></svg>